<svg version="1.1" id="Layer_1" xmlns="http://www.w3.org/2000/svg" xmlns:xlink="http://www.w3.org/1999/xlink" x="0px" y="0px"
	 width="100%" viewBox="0 0 225 225" enable-background="new 0 0 225 225" xml:space="preserve">
<path fill="none" opacity="1.000000" stroke="#000000" stroke-linecap="round" stroke-linejoin="round" stroke-width="2.000000"
	d="
M85.000000,169.000000 
	C80.913780,173.968384 79.099945,176.087234 87.463623,181.555634 
	C99.525734,189.442123 113.190819,191.671112 127.004509,193.465286 
	C136.120041,194.649231 145.299683,195.147354 154.499542,194.975540 
	C155.869141,194.949966 157.494339,195.644012 158.500000,194.000000 
"/>
<path fill="none" opacity="1.000000" stroke="#000000" stroke-linecap="round" stroke-linejoin="round" stroke-width="3.000000"
	d="
M30.000000,92.500000 
	C24.382290,98.822998 28.493008,104.920792 30.523129,110.992264 
	C36.482311,128.814392 46.352200,144.424408 58.007637,158.993896 
	C61.641846,163.536682 66.081589,167.289566 70.551292,170.937149 
	C73.627937,173.447891 77.303772,174.941711 81.500000,174.000000 
"/>
<path fill="none" opacity="1.000000" stroke="#000000" stroke-linecap="round" stroke-linejoin="round" stroke-width="3.000000"
	d="
M93.750000,54.500000 
	C91.978065,58.335522 87.103447,58.551243 85.063622,62.186909 
	C87.123650,65.579948 86.752693,69.673111 86.900116,73.503845 
	C87.596191,91.591164 89.344223,109.407097 95.804260,126.573662 
	C97.068108,129.932144 98.699387,132.422501 100.905388,135.078583 
	C106.523064,141.842422 111.813828,148.894760 116.930893,156.049423 
	C119.118073,159.107529 122.030602,161.167496 125.055214,162.903824 
	C130.881271,166.248352 136.661255,169.726685 142.591156,172.825562 
	C147.994141,175.649063 154.164261,177.007080 160.000885,178.997391 
	C163.585648,180.219772 166.943207,180.847366 170.141830,177.641510 
	C170.822983,176.958817 173.640488,174.761749 175.000000,178.000000 
"/>
<path fill="none" opacity="1.000000" stroke="#000000" stroke-linecap="round" stroke-linejoin="round" stroke-width="12.000000"
	d="
M64.000000,150.500000 
	C64.314354,157.015808 69.422295,159.808441 74.083420,162.346817 
	C77.994385,164.476639 82.633934,165.268570 86.848190,166.619919 
	C89.623566,164.231506 90.230751,161.628815 88.514648,158.491989 
	C86.206505,154.273010 82.880234,150.990448 78.005508,151.159180 
	C73.388504,151.318970 69.294853,148.033432 64.424271,149.790039 
	C63.268593,150.206833 60.325222,148.387207 59.654213,146.929031 
	C57.441742,142.121094 53.601570,138.034927 53.000000,132.500000 
"/>
<path fill="none" opacity="1.000000" stroke="#000000" stroke-linecap="round" stroke-linejoin="round" stroke-width="11.000000"
	d="
M213.000000,183.000000 
	C205.328384,183.609741 197.743195,185.213333 189.999985,185.000565 
	C189.833435,184.995987 189.639313,184.943024 189.503876,185.008072 
	C175.219391,191.869308 160.577179,188.057922 145.995193,186.546402 
	C143.690887,186.307541 141.418930,186.053513 138.959320,186.878754 
	C134.934433,188.229233 130.738480,188.092178 127.000000,185.500000 
"/>
<path fill="none" opacity="1.000000" stroke="#000000" stroke-linecap="round" stroke-linejoin="round" stroke-width="6.000000"
	d="
M60.000000,42.750000 
	C65.718094,39.541645 69.168541,40.874771 71.019508,47.065235 
	C77.011543,47.275608 82.581215,49.818497 88.506523,50.437595 
	C90.734383,50.670376 91.674904,52.237648 93.000000,53.500000 
"/>
<path fill="none" opacity="1.000000" stroke="#000000" stroke-linecap="round" stroke-linejoin="round" stroke-width="11.000000"
	d="
M88.500000,166.000000 
	C92.691460,170.347565 97.072380,173.453400 103.271736,175.645523 
	C109.256714,177.761841 115.588730,180.479340 121.496971,183.505905 
	C122.632156,184.087418 123.829178,184.585709 124.938339,185.126465 
	C126.705666,185.988113 126.256889,184.491226 126.750000,184.000000 
"/>
<path fill="none" opacity="1.000000" stroke="#000000" stroke-linecap="round" stroke-linejoin="round" stroke-width="9.000000"
	d="
M24.500000,53.000000 
	C27.551100,52.246861 30.659935,53.113846 33.489937,53.050484 
	C37.612862,52.958179 41.372868,54.715714 45.518368,54.130001 
	C50.274410,53.458031 55.102722,52.214493 60.006626,53.474205 
	C61.725025,53.915619 63.207012,53.121037 64.500000,52.000000 
"/>
<path fill="none" opacity="1.000000" stroke="#000000" stroke-linecap="round" stroke-linejoin="round" stroke-width="8.000000"
	d="
M62.000000,41.000000 
	C60.397045,37.823895 56.647293,37.004398 54.563515,34.135448 
	C53.562450,32.757187 50.541885,33.141418 48.510342,34.023811 
	C45.886204,35.163593 43.790489,36.853188 43.500000,40.000000 
"/>
<path fill="none" opacity="1.000000" stroke="#000000" stroke-linecap="round" stroke-linejoin="round" stroke-width="4.000000"
	d="
M84.500000,62.500000 
	C78.519096,63.187710 72.603523,64.162354 67.007416,66.517624 
	C66.947830,66.542702 66.940720,66.868240 67.013580,66.992004 
	C67.129349,67.188629 67.333336,67.333336 67.500000,67.500000 
"/>
<path fill="none" opacity="1.000000" stroke="#000000" stroke-linecap="round" stroke-linejoin="round" stroke-width="2.000000"
	d="
M43.000000,26.000000 
	C45.726151,24.788675 47.236816,22.549696 45.370483,20.098618 
	C43.645260,17.832857 40.818790,17.356926 38.508511,20.007418 
	C37.777870,20.845650 36.499554,21.172367 37.343262,23.069698 
	C38.010826,24.570904 38.409218,25.119593 40.002235,25.063610 
	C40.822842,25.034777 41.666668,25.666668 42.500000,26.000000 
"/>
<path fill="none" opacity="1.000000" stroke="#000000" stroke-linecap="round" stroke-linejoin="round" stroke-width="3.000000"
	d="
M110.500000,166.500000 
	C108.849739,165.309891 106.806007,165.344757 105.311981,163.126648 
	C102.455101,158.885147 96.906731,158.866058 90.000000,162.000000 
"/>
<path fill="none" opacity="1.000000" stroke="#000000" stroke-linecap="round" stroke-linejoin="round" stroke-width="4.000000"
	d="
M34.500000,54.500000 
	C33.329563,57.438995 30.655363,58.141872 28.015276,59.044674 
	C26.267965,59.642181 24.566195,60.514019 23.020620,61.531330 
	C19.656910,63.745354 17.424644,66.827515 18.577555,70.978462 
	C19.809734,75.414810 21.860182,79.461769 27.500000,79.500000 
"/>
<path fill="none" opacity="1.000000" stroke="#000000" stroke-linecap="round" stroke-linejoin="round" stroke-width="2.000000"
	d="
M49.500000,106.500000 
	C49.009712,102.774544 51.326138,98.113510 45.703938,95.909439 
	C43.263374,97.048004 40.490284,97.889389 37.500000,97.500000 
"/>
<path fill="none" opacity="1.000000" stroke="#000000" stroke-linecap="round" stroke-linejoin="round" stroke-width="2.000000"
	d="
M44.000000,41.500000 
	C48.653572,44.232143 53.207481,47.462585 59.000000,44.500000 
"/>
<path fill="none" opacity="1.000000" stroke="#000000" stroke-linecap="round" stroke-linejoin="round" stroke-width="14.000000"
	d="
M72.000000,130.000000 
	C65.592484,129.961899 59.185093,129.925049 53.018188,132.123856 
	C47.087681,128.516159 43.973202,123.217506 43.575817,116.495522 
	C43.375736,113.110977 41.052250,110.814430 39.770443,108.108757 
	C37.364471,103.030182 37.618614,97.082199 34.043667,92.466179 
	C32.119202,89.981293 31.943851,86.996803 33.000000,84.000000 
"/>
<path fill="none" opacity="1.000000" stroke="#000000" stroke-linecap="round" stroke-linejoin="round" stroke-width="7.000000"
	d="
M66.500000,66.000000 
	C60.166653,67.243553 54.689808,70.822006 48.522564,72.579193 
	C45.738079,73.372543 43.459122,75.330475 42.000000,78.000000 
"/>
<path fill="none" opacity="1.000000" stroke="#000000" stroke-linecap="round" stroke-linejoin="round" stroke-width="4.000000"
	d="
M27.500000,65.500000 
	C25.115038,67.910210 24.575146,70.396072 26.406378,73.554283 
	C27.309582,75.111984 28.372643,76.928673 28.000000,79.000000 
"/>
<path fill="none" opacity="1.000000" stroke="#000000" stroke-linecap="round" stroke-linejoin="round" stroke-width="2.000000"
	d="
M56.500000,112.500000 
	C56.900444,113.546310 57.044022,114.842239 58.501129,114.988777 
	C60.695564,115.209457 62.384331,117.130074 62.321568,118.491776 
	C62.088680,123.544243 65.685760,125.965279 68.500000,129.000000 
"/>
<path fill="none" opacity="1.000000" stroke="#000000" stroke-linecap="round" stroke-linejoin="round" stroke-width="3.000000"
	d="
M138.500000,179.000000 
	C133.646271,176.105469 131.189606,180.402161 128.000000,182.500000 
"/>
<path fill="none" opacity="1.000000" stroke="#000000" stroke-linecap="round" stroke-linejoin="round" stroke-width="11.000000"
	d="
M34.500000,38.000000 
	C37.871346,37.496494 40.634354,39.182991 44.003613,40.684025 
	C41.319553,44.409779 38.648220,48.074108 37.500000,52.500000 
"/>
<path fill="none" opacity="1.000000" stroke="#000000" stroke-linecap="round" stroke-linejoin="round" stroke-width="3.000000"
	d="
M77.500000,98.500000 
	C78.333336,101.833336 79.166664,105.166664 80.000000,108.500000 
"/>
<path fill="none" opacity="1.000000" stroke="#000000" stroke-linecap="round" stroke-linejoin="round" stroke-width="5.000000"
	d="
M78.500000,127.500000 
	C81.511391,132.651855 81.511391,132.651855 75.000000,133.500000 
"/>
<path fill="none" opacity="1.000000" stroke="#000000" stroke-linecap="round" stroke-linejoin="round" stroke-width="3.000000"
	d="
M59.000000,120.500000 
	C56.069515,115.513573 51.509811,118.021530 47.500000,118.000000 
"/>
<path fill="none" opacity="1.000000" stroke="#000000" stroke-linecap="round" stroke-linejoin="round" stroke-width="2.000000"
	d="
M122.000000,189.000000 
	C119.070717,190.464493 116.326950,188.775162 113.500000,188.500000 
"/>
<path fill="none" opacity="1.000000" stroke="#000000" stroke-linecap="round" stroke-linejoin="round" stroke-width="3.000000"
	d="
M34.500000,118.000000 
	C37.206867,119.408310 40.133209,118.951042 43.000000,119.000000 
"/>
<path fill="none" opacity="1.000000" stroke="#000000" stroke-linecap="round" stroke-linejoin="round" stroke-width="3.000000"
	d="
M186.500000,182.000000 
	C183.798798,178.892883 179.468765,181.215210 176.500000,179.000000 
"/>
<path fill="none" opacity="1.000000" stroke="#000000" stroke-linecap="round" stroke-linejoin="round" stroke-width="2.000000"
	d="
M53.500000,102.500000 
	C52.122425,105.166664 54.135063,107.833336 53.500000,110.500000 
"/>
<path fill="none" opacity="1.000000" stroke="#000000" stroke-linecap="round" stroke-linejoin="round" stroke-width="3.000000"
	d="
M82.000000,72.500000 
	C82.063538,75.015350 79.910149,77.382896 81.500000,80.000000 
"/>
<path fill="none" opacity="1.000000" stroke="#000000" stroke-linecap="round" stroke-linejoin="round" stroke-width="5.000000"
	d="
M33.000000,57.500000 
	C34.130093,61.375900 33.748371,66.286201 39.500000,67.000000 
"/>
<path fill="none" opacity="1.000000" stroke="#000000" stroke-linecap="round" stroke-linejoin="round" stroke-width="2.000000"
	d="
M57.000000,140.000000 
	C59.166679,140.166519 61.393036,139.557220 63.500000,140.500000 
"/>
<path fill="none" opacity="1.000000" stroke="#000000" stroke-linecap="round" stroke-linejoin="round" stroke-width="6.000000"
	d="
M74.500000,138.500000 
	C75.594627,140.827484 77.693039,141.416946 79.979218,142.072495 
	C82.977280,142.932175 86.491104,143.280457 87.750000,147.000000 
"/>
<path fill="none" opacity="1.000000" stroke="#000000" stroke-linecap="round" stroke-linejoin="round" stroke-width="2.000000"
	d="
M62.500000,101.500000 
	C62.875072,103.541626 63.365170,105.514229 65.527115,106.830597 
	C67.902290,104.044060 65.218582,102.435791 64.500000,100.500000 
"/>
<path fill="none" opacity="1.000000" stroke="#000000" stroke-linecap="round" stroke-linejoin="round" stroke-width="2.000000"
	d="
M68.500000,135.500015 
	C70.347435,136.124893 72.194870,136.749786 74.403297,137.496780 
	C72.324280,138.700211 70.389069,138.473221 68.500000,138.500000 
"/>
<path fill="none" opacity="1.000000" stroke="#000000" stroke-linecap="round" stroke-linejoin="round" stroke-width="6.000000"
	d="
M50.500000,109.500000 
	C53.157261,109.817184 55.336910,113.535095 58.648441,110.145004 
	C59.675068,109.094025 61.716259,111.626022 63.500000,112.000000 
"/>
<path fill="none" opacity="1.000000" stroke="#000000" stroke-linecap="round" stroke-linejoin="round" stroke-width="2.000000"
	d="
M89.000000,104.000000 
	C87.854988,104.521652 86.013138,104.346466 86.500000,106.500000 
"/>
</svg>