<svg version="1.1" id="Layer_1" xmlns="http://www.w3.org/2000/svg" xmlns:xlink="http://www.w3.org/1999/xlink" x="0px" y="0px"
	 width="100%" viewBox="0 0 880 672" enable-background="new 0 0 880 672" xml:space="preserve">
<path fill="#000000" opacity="1.000000" stroke="none" 
	d="
M304.103149,231.235474 
	C305.188141,245.554062 309.007477,258.755920 314.419647,271.449188 
	C322.737671,290.957672 334.709442,307.987518 350.459412,322.282104 
	C370.487793,340.459778 393.733124,352.676300 420.295715,357.442535 
	C463.678009,365.226868 502.666504,354.678711 536.827393,326.822723 
	C565.648682,303.320923 582.313843,272.753571 588.426453,236.289185 
	C589.300049,231.078094 589.488525,225.721817 589.600159,220.424423 
	C589.669495,217.134872 590.532166,215.588654 594.135986,215.637390 
	C605.464355,215.790604 616.797058,215.769043 628.126099,215.640732 
	C631.461853,215.602936 632.527222,216.971069 632.338379,220.123291 
	C630.809204,245.641373 626.130249,270.325897 615.284607,293.781372 
	C600.598694,325.542297 578.914490,351.295227 550.124146,370.856659 
	C526.596741,386.842102 500.596832,396.782043 472.194031,400.545898 
	C438.684448,404.986481 406.446625,400.977966 375.202728,388.134613 
	C354.984894,379.823700 337.007996,368.209229 320.927521,353.392548 
	C290.722168,325.561096 272.093018,291.320068 263.902679,251.308182 
	C261.847717,241.269165 261.197021,230.970032 260.645081,220.708389 
	C260.456970,217.210526 261.441803,215.541199 265.348297,215.609802 
	C276.508728,215.805771 287.676086,215.773941 298.837982,215.625214 
	C302.397308,215.577789 303.453888,217.043381 303.401947,220.383911 
	C303.348083,223.850555 302.819611,227.385757 304.103149,231.235474 
z"/>
<path fill="#000000" opacity="1.000000" stroke="none" 
	d="
M426.279572,149.341690 
	C440.614136,133.809509 457.799744,124.063080 478.245483,120.202560 
	C493.087616,117.400093 508.093842,119.070053 523.025513,118.701530 
	C525.322449,118.644844 526.367432,119.755295 526.312256,122.032280 
	C526.275940,123.529633 526.346924,125.029259 526.346863,126.527870 
	C526.346313,153.173233 526.599792,179.821915 526.257935,206.462936 
	C525.982666,227.912354 520.159058,247.692551 506.666351,264.853333 
	C492.383087,283.019653 473.850739,294.234833 451.222717,298.262054 
	C436.575562,300.868927 421.675934,298.882782 406.896820,299.305298 
	C404.539185,299.372711 403.663818,298.042847 403.692993,295.852966 
	C403.712952,294.354889 403.654449,292.855927 403.654266,291.357361 
	C403.651001,264.378906 403.673615,237.400452 403.643616,210.422058 
	C403.619659,188.875412 410.105560,169.626740 423.745300,152.858749 
	C424.580292,151.832245 425.272736,150.689774 426.279572,149.341690 
M496.780548,148.988068 
	C494.783295,143.746078 491.622406,141.628601 486.683929,142.224411 
	C482.564697,142.721390 479.455261,146.011627 479.131073,150.216415 
	C478.705780,155.732788 482.048065,159.624542 487.443878,159.895782 
	C493.383575,160.194366 496.607574,156.744843 496.780548,148.988068 
z"/>
<path fill="#000000" opacity="1.000000" stroke="none" 
	d="
M309.667053,157.993744 
	C309.668152,146.830780 309.782990,136.164780 309.609009,125.503487 
	C309.548584,121.801353 310.878784,120.584427 314.536682,120.610336 
	C332.031555,120.734238 349.561584,119.976952 367.013458,120.848328 
	C381.990204,121.596123 394.134888,133.810318 396.311279,149.576447 
	C398.483917,165.315659 396.829529,181.159073 397.365143,196.944931 
	C397.472046,200.095093 396.386230,201.393600 393.071899,201.370575 
	C376.409973,201.254745 359.740906,201.593170 343.085693,201.239426 
	C324.407501,200.842712 309.705719,185.269348 309.668396,166.490616 
	C309.663086,163.824615 309.667450,161.158585 309.667053,157.993744 
z"/>
<path fill="#000000" opacity="1.000000" stroke="none" 
	d="
M689.000122,493.648193 
	C699.160645,493.649719 708.823059,493.764221 718.480591,493.595337 
	C722.122681,493.531677 723.483521,494.763153 723.398560,498.481476 
	C723.075134,512.644409 725.055054,510.276337 712.047852,510.342255 
	C685.065735,510.479004 658.082581,510.407715 631.099854,510.414856 
	C629.453064,510.415314 627.754761,510.682983 626.257141,509.667053 
	C625.419922,508.109558 625.665344,506.412720 625.664062,504.766754 
	C625.646118,482.281067 625.745728,459.794647 625.566040,437.310394 
	C625.531799,433.019501 626.708069,431.522644 631.176758,431.549805 
	C659.990662,431.724945 688.806458,431.706665 717.620728,431.567505 
	C721.799133,431.547333 723.498474,432.537720 723.452393,437.110962 
	C723.328857,449.363068 723.537781,449.361633 711.430664,449.360382 
	C690.777161,449.358276 670.120667,449.551270 649.472107,449.232452 
	C644.086548,449.149323 643.106262,451.126892 643.213013,455.900146 
	C643.312439,460.342346 643.599854,462.864777 649.268372,462.784424 
	C671.916016,462.463379 694.572205,462.780975 717.222229,462.560974 
	C721.994202,462.514618 723.559082,463.856049 723.456177,468.723114 
	C723.210083,480.371307 723.439941,480.373322 711.808167,480.373383 
	C691.154663,480.373474 670.501038,480.347839 649.847839,480.423401 
	C647.682312,480.431305 644.506042,479.290436 643.731384,482.219482 
	C642.857483,485.523865 642.658997,489.234558 643.954468,492.529083 
	C644.635742,494.261719 646.915588,493.622528 648.525391,493.626678 
	C661.850159,493.661011 675.175171,493.647491 689.000122,493.648193 
z"/>
<path fill="#000000" opacity="1.000000" stroke="none" 
	d="
M424.337891,500.962616 
	C424.337799,504.567993 424.337799,507.687378 424.337799,511.347382 
	C419.104553,511.347382 414.488403,511.331024 409.872467,511.352570 
	C406.230164,511.369568 406.667786,508.709625 406.664001,506.429230 
	C406.640503,492.272980 406.655090,478.116638 406.657196,463.960327 
	C406.658569,454.800354 406.790436,445.637665 406.598206,436.481781 
	C406.520142,432.764648 407.889313,431.580261 411.526855,431.593628 
	C438.839783,431.694122 466.153412,431.594635 493.466492,431.677643 
	C501.031128,431.700623 504.326508,435.211517 504.333801,442.659698 
	C504.344910,453.984741 504.342621,465.309784 504.329773,476.634827 
	C504.320190,485.070770 502.074463,487.371948 493.783508,487.377960 
	C473.465027,487.392700 453.146545,487.379456 432.828064,487.383575 
	C424.353027,487.385284 424.352905,487.392365 424.341339,495.979919 
	C424.339294,497.478821 424.339050,498.977753 424.337891,500.962616 
M476.462524,449.378204 
	C460.810608,449.384857 445.158234,449.459595 429.507172,449.348297 
	C425.786224,449.321869 423.906189,450.314606 424.282654,454.448669 
	C424.598450,457.916412 424.637360,461.467377 424.269867,464.925293 
	C423.757599,469.745789 425.853394,470.801483 430.284943,470.736694 
	C445.767059,470.510468 461.254974,470.722107 476.739746,470.621857 
	C489.132294,470.541626 487.617371,472.426086 487.611847,459.810822 
	C487.606506,447.634644 489.182343,449.586182 476.462524,449.378204 
z"/>
<path fill="#000000" opacity="1.000000" stroke="none" 
	d="
M563.999878,449.376221 
	C555.168945,449.373566 546.834473,449.512939 538.508667,449.304535 
	C534.613342,449.207031 533.247192,450.565948 533.285583,454.502625 
	C533.448425,471.162903 533.235474,487.827240 533.446960,504.486420 
	C533.503479,508.937073 532.332397,510.604614 527.587708,510.495056 
	C515.647949,510.219360 515.644897,510.442047 515.646729,498.621826 
	C515.649780,478.460968 515.782288,458.298615 515.554626,438.140350 
	C515.500183,433.320038 516.574829,431.451782 521.856201,431.517517 
	C544.679382,431.801666 567.509155,431.515961 590.334473,431.695770 
	C600.164978,431.773224 608.127319,435.441833 612.219727,445.182831 
	C613.015686,447.077423 613.364502,448.958771 613.361389,450.991119 
	C613.333374,469.152496 613.236816,487.315002 613.420288,505.474579 
	C613.463318,509.733551 612.113770,510.832855 607.912476,510.558105 
	C596.670837,509.822937 596.658936,510.018982 596.658081,498.922913 
	C596.657043,486.093292 596.682373,473.263550 596.641785,460.434052 
	C596.616455,452.413574 593.535583,449.400604 585.493896,449.386139 
	C578.495911,449.373566 571.497925,449.378510 563.999878,449.376221 
z"/>
<path fill="#000000" opacity="1.000000" stroke="none" 
	d="
M263.189026,439.925354 
	C266.327606,444.267548 267.503601,448.681458 267.434631,453.766022 
	C267.204224,470.752869 267.217773,487.746277 267.426453,504.733612 
	C267.479523,509.051636 266.271393,510.619171 261.799438,510.468109 
	C248.783676,510.028473 250.787872,512.078125 250.677780,499.317932 
	C250.565704,486.326569 250.679657,473.333435 250.637955,460.341248 
	C250.612823,452.514679 247.524200,449.393921 239.904602,449.385803 
	C224.247223,449.369049 208.587753,449.514862 192.933701,449.284851 
	C188.483292,449.219452 187.218246,450.742126 187.269592,455.055450 
	C187.467850,471.709839 187.237411,488.369232 187.416916,505.024048 
	C187.461121,509.126007 186.174500,510.491577 182.020599,510.481293 
	C169.649551,510.450562 169.650726,510.608337 169.651459,498.056580 
	C169.652634,477.901825 169.755585,457.746155 169.569855,437.593109 
	C169.529205,433.182861 170.645370,431.488403 175.392151,431.534485 
	C198.376373,431.757629 221.364304,431.564545 244.350128,431.679230 
	C251.566452,431.715240 258.110504,433.805664 263.189026,439.925354 
z"/>
<path fill="#000000" opacity="1.000000" stroke="none" 
	d="
M326.140137,445.141571 
	C329.471039,440.218475 332.518738,435.523224 337.235748,431.048859 
	C356.920898,457.441956 376.287903,483.408539 396.107971,509.982513 
	C388.858032,511.082336 382.579407,510.507233 376.321655,510.241089 
	C374.137024,510.148193 372.895416,508.373718 371.700531,506.750854 
	C368.054535,501.799042 364.294617,496.924713 360.826599,491.851013 
	C359.141052,489.385040 357.215240,488.321472 354.215027,488.353271 
	C342.888702,488.473236 331.559082,488.484192 320.233429,488.331696 
	C316.864227,488.286346 314.520447,489.538116 312.629242,492.167664 
	C308.941803,497.294830 305.169800,502.361084 301.471405,507.480469 
	C300.589966,508.700531 299.839813,510.403564 298.242493,510.343323 
	C291.984741,510.107269 285.674316,511.359924 278.177460,509.885101 
	C293.795227,487.465515 310.093994,466.615173 326.140137,445.141571 
M338.226685,461.817139 
	C335.047760,461.711914 333.464325,463.346252 331.365692,469.203278 
	C334.996948,469.484802 338.464203,470.471558 341.872681,468.546631 
	C341.847992,465.709930 339.571381,464.352325 338.226685,461.817139 
z"/>
<path fill="#000000" opacity="1.000000" stroke="none" 
	d="
M357.493195,543.350159 
	C357.214783,545.303223 357.412109,547.291382 354.891205,547.116943 
	C352.413086,546.945435 352.758209,544.923035 352.727020,543.348389 
	C352.647827,539.353455 352.666321,535.355164 352.724609,531.359436 
	C352.745819,529.907288 352.582520,528.231445 354.667175,527.869995 
	C356.358124,527.576721 357.528717,528.281372 358.428894,529.686768 
	C360.024902,532.178528 361.211853,534.968140 363.649475,537.131531 
	C366.323364,535.560730 367.090271,532.652710 368.583832,530.378052 
	C369.831543,528.477783 371.112946,527.303345 373.416748,527.889587 
	C375.984650,528.543091 375.242126,530.749817 375.299133,532.433655 
	C375.417389,535.926880 375.376709,539.427368 375.321869,542.923706 
	C375.291168,544.879272 375.610046,547.170410 372.571625,547.238586 
	C369.553223,547.306274 369.756378,545.067688 369.621155,543.075378 
	C369.566772,542.273865 369.492493,541.473633 369.411804,540.483215 
	C366.617767,541.377319 366.556366,545.406921 363.312592,545.208496 
	C360.251587,545.021301 360.526764,541.256531 358.171783,540.262695 
	C357.098328,541.018555 357.941132,542.151123 357.493195,543.350159 
z"/>
<path fill="#000000" opacity="1.000000" stroke="none" 
	d="
M621.411926,529.247192 
	C623.331299,532.221497 624.984802,534.904663 626.716736,537.715027 
	C629.721008,536.181763 630.066650,532.833313 631.883484,530.575195 
	C633.184204,528.958618 634.318542,527.198425 636.710632,528.002380 
	C638.824280,528.712769 638.248352,530.721191 638.286743,532.285339 
	C638.372498,535.779114 638.386353,539.279114 638.272461,542.771484 
	C638.217468,544.458313 638.855652,546.913147 636.140503,547.039795 
	C632.953796,547.188354 633.891846,544.397949 633.605225,542.629639 
	C633.427246,541.531860 633.572205,540.381653 633.572205,538.865173 
	C630.683899,540.722351 630.671692,545.151611 627.165466,545.037354 
	C623.983765,544.933594 623.306580,541.234680 620.943237,539.209900 
	C619.941284,540.898254 620.513000,542.713379 620.300354,544.372620 
	C620.119324,545.785645 619.847107,547.040955 618.069580,547.097412 
	C616.279663,547.154236 615.770569,545.959290 615.755249,544.507080 
	C615.705994,539.847534 615.442261,535.164062 615.812866,530.533997 
	C616.151611,526.301392 618.782471,527.557007 621.411926,529.247192 
z"/>
<path fill="#000000" opacity="1.000000" stroke="none" 
	d="
M701.674194,541.838867 
	C701.671326,538.358521 701.569641,535.354736 701.710571,532.362305 
	C701.788696,530.703796 700.960999,528.412231 703.639404,527.907227 
	C705.970581,527.467651 707.328979,528.882568 708.405823,530.743469 
	C709.799133,533.151001 711.270203,535.513428 712.750244,537.965759 
	C715.764221,535.887756 716.307190,532.493103 718.276550,530.071899 
	C719.390564,528.702271 720.409851,527.492798 722.367432,527.869507 
	C724.758484,528.329529 724.266296,530.300110 724.299316,531.850220 
	C724.380981,535.680420 724.364563,539.514832 724.283264,543.345398 
	C724.249512,544.938416 724.520874,546.975952 722.049927,547.044556 
	C719.539612,547.114197 719.807739,545.073608 719.695557,543.471558 
	C719.603943,542.162720 719.676880,540.842407 719.676880,539.153748 
	C716.405334,540.521484 716.611694,545.733459 712.744385,544.981262 
	C709.680908,544.385315 709.024963,540.649902 706.898132,538.560303 
	C705.904358,539.874756 706.523926,541.238525 706.321838,542.488098 
	C706.031982,544.280029 707.082886,547.087830 703.945312,546.989624 
	C700.924377,546.894958 702.007446,544.108948 701.674194,541.838867 
z"/>
<path fill="#000000" opacity="1.000000" stroke="none" 
	d="
M248.782959,546.373291 
	C246.083923,548.021362 244.501083,546.575500 242.866486,545.019409 
	C240.950653,543.195496 239.821198,540.625244 237.175644,539.114563 
	C235.704620,540.824707 236.600861,542.897339 236.308334,544.706543 
	C236.009491,546.554626 235.084854,547.301880 233.287811,547.224915 
	C231.686783,547.156311 230.786118,546.367371 230.774826,544.768372 
	C230.740707,539.938599 230.550537,535.096375 230.833282,530.283203 
	C231.000397,527.438782 234.016815,526.735352 236.295288,528.997559 
	C238.848221,531.532227 241.147324,534.322571 243.661118,537.117615 
	C245.345367,535.122864 244.429031,533.043274 244.695541,531.163757 
	C244.906296,529.677734 244.749176,528.015259 246.920502,527.953979 
	C249.091766,527.892578 249.263046,529.487183 249.252884,531.027771 
	C249.219971,536.017761 249.106033,541.007263 248.782959,546.373291 
z"/>
<path fill="#000000" opacity="1.000000" stroke="none" 
	d="
M661.995239,529.300293 
	C666.384949,526.728577 670.873474,527.333374 675.132568,528.294800 
	C679.037231,529.176208 680.550415,533.572083 678.986450,537.625366 
	C677.197815,542.260803 677.197876,542.260803 679.393188,546.187988 
	C675.284546,547.933594 675.213623,547.910706 672.292236,544.273621 
	C671.398376,543.160767 670.912598,541.376648 669.031738,541.683044 
	C667.303711,541.964539 667.413330,543.556458 667.297852,544.844177 
	C667.124207,546.781311 665.958069,547.315857 664.233093,547.207214 
	C662.290649,547.084778 661.742249,545.792480 661.743591,544.154358 
	C661.747498,539.354370 661.808289,534.554382 661.995239,529.300293 
M672.285217,532.191956 
	C670.533081,531.267944 668.726624,530.718628 667.640869,532.965088 
	C667.073547,534.138977 667.037964,535.624268 667.985413,536.741821 
	C669.042114,537.988281 670.388611,537.640442 671.614746,536.984192 
	C673.515869,535.966858 674.346924,534.577881 672.285217,532.191956 
z"/>
<path fill="#000000" opacity="1.000000" stroke="none" 
	d="
M345.583496,546.247681 
	C343.362946,547.849121 341.581421,547.473816 339.747559,545.730835 
	C336.203247,542.362183 332.814789,542.303284 329.618988,545.718750 
	C327.907562,547.547729 326.331116,547.524109 323.545166,546.369995 
	C326.234711,540.540222 328.657867,534.660706 331.649017,529.085938 
	C333.013184,526.543579 336.997559,527.140381 338.473602,530.080200 
	C341.064392,535.240234 343.271729,540.592712 345.583496,546.247681 
z"/>
<path fill="#000000" opacity="1.000000" stroke="none" 
	d="
M592.917603,545.339966 
	C591.075806,548.273865 589.315796,547.559570 587.398193,545.656433 
	C584.128662,542.411560 580.287415,542.313354 577.173584,545.561768 
	C575.378479,547.434448 573.633301,547.761047 571.004089,546.455933 
	C573.544617,540.860840 575.863525,535.194092 578.669312,529.779663 
	C580.416992,526.407227 584.277649,526.564697 586.022339,530.001099 
	C588.499878,534.881287 590.599915,539.953186 592.917603,545.339966 
z"/>
<path fill="#000000" opacity="1.000000" stroke="none" 
	d="
M535.776123,532.304321 
	C537.924377,537.191101 539.886353,541.738892 541.955872,546.536133 
	C539.279785,547.746094 537.485168,547.460266 535.540161,545.465088 
	C532.487915,542.334167 528.787415,542.529663 525.620056,545.552002 
	C523.880127,547.212097 523.880127,547.212097 519.515198,546.449097 
	C522.273193,540.489197 524.622314,534.535767 527.743713,529.019226 
	C529.430908,526.037537 532.985168,527.494507 535.776123,532.304321 
z"/>
<path fill="#000000" opacity="1.000000" stroke="none" 
	d="
M212.785889,541.583618 
	C210.427856,541.890381 210.451447,543.513245 210.262054,544.989685 
	C210.091614,546.318298 209.457306,547.131714 208.018921,547.126953 
	C206.568924,547.122192 205.826889,546.261902 205.811325,544.956421 
	C205.751816,539.968201 205.761978,534.978455 205.830154,529.990417 
	C205.838058,529.412292 206.229279,528.671387 206.682602,528.294434 
	C209.668167,525.811768 220.575470,528.206543 222.367569,531.688782 
	C222.982452,532.883606 223.862640,534.327942 223.067017,535.453979 
	C220.455521,539.150146 219.785889,542.792786 223.298706,546.417358 
	C219.523239,548.021667 217.346039,547.106262 215.787399,544.410461 
	C215.123337,543.261902 214.577621,542.010193 212.785889,541.583618 
M210.548477,533.110046 
	C210.228485,535.404236 210.119904,537.589478 213.391907,537.553833 
	C215.036255,537.535950 216.183945,536.618774 216.891617,535.202637 
	C217.407669,534.169861 216.970535,533.233154 216.167084,532.566711 
	C214.450409,531.142578 212.650711,530.867737 210.548477,533.110046 
z"/>
<path fill="#000000" opacity="1.000000" stroke="none" 
	d="
M557.756226,527.684570 
	C565.331299,528.271301 568.117249,532.774719 564.368286,538.581726 
	C562.153320,542.012573 566.031006,543.664795 565.439453,546.676880 
	C562.490723,548.186462 560.376953,547.022583 558.686157,544.329407 
	C557.914062,543.099670 557.384705,541.457947 555.536682,541.555664 
	C553.513550,541.662598 553.418152,543.302673 553.262756,544.812317 
	C553.102844,546.365601 552.370117,547.283875 550.685730,547.073975 
	C548.907227,546.852356 548.769653,545.455261 548.745972,544.118347 
	C548.681458,540.477356 548.942810,536.812500 548.615173,533.198792 
	C548.210144,528.730957 550.059326,527.115295 554.318970,527.666931 
	C555.295776,527.793396 556.303162,527.684570 557.756226,527.684570 
M559.869446,533.189819 
	C557.692932,531.047974 555.358826,529.987366 553.593567,533.392761 
	C552.922302,534.687683 552.765564,536.995911 555.012939,537.429810 
	C557.742310,537.956970 559.888916,537.011536 559.869446,533.189819 
z"/>
<path fill="#000000" opacity="1.000000" stroke="none" 
	d="
M409.421143,528.597168 
	C412.970032,527.215942 414.460205,528.425537 414.374023,531.796509 
	C414.318909,533.951721 414.275970,536.115051 414.398254,538.265015 
	C414.543518,540.820007 415.696014,543.052124 418.420135,543.123230 
	C421.183655,543.195374 422.371552,540.963806 422.578674,538.429688 
	C422.753937,536.285278 422.584961,534.114563 422.707703,531.963379 
	C422.804962,530.259338 422.256989,527.866028 425.115417,528.008301 
	C427.859436,528.144897 427.207336,530.500977 427.312286,532.197327 
	C427.414520,533.849976 427.324890,535.514465 427.322327,537.173767 
	C427.308838,545.924377 425.013000,547.971191 416.269806,547.365784 
	C412.788879,547.124695 410.748932,545.357056 409.816284,542.177063 
	C408.541565,537.830627 408.160156,533.411926 409.421143,528.597168 
z"/>
<path fill="#000000" opacity="1.000000" stroke="none" 
	d="
M445.081726,540.381653 
	C442.725342,539.625549 440.553131,539.231873 438.680511,538.260559 
	C435.151001,536.429993 434.581482,532.295532 437.236206,529.497498 
	C439.200562,527.427124 447.672668,526.918457 449.967255,528.631042 
	C451.156097,529.518372 451.159149,530.418640 450.610748,531.627930 
	C449.941681,533.103394 448.914734,532.710754 447.720703,532.486877 
	C445.678131,532.103882 443.403198,530.031860 441.554382,533.045227 
	C442.370636,536.131714 445.208771,535.491333 447.220947,536.086060 
	C450.258240,536.983765 452.457825,538.534607 452.127472,541.914185 
	C451.787476,545.392517 449.400299,547.083618 446.019379,547.288391 
	C444.035980,547.408447 442.036835,547.359741 440.048737,547.283630 
	C438.330505,547.217773 436.699066,546.720703 436.038544,544.951172 
	C435.787170,544.277649 435.843872,543.117432 436.272736,542.629578 
	C437.733917,540.967529 439.309570,542.252808 440.785339,542.819336 
	C442.352722,543.421082 443.923065,544.185364 445.457916,542.942017 
	C446.350220,542.219177 446.485748,541.278381 445.081726,540.381653 
z"/>
<path fill="#000000" opacity="1.000000" stroke="none" 
	d="
M481.630127,531.778625 
	C478.596802,533.658264 475.615265,535.486694 477.473419,539.331116 
	C479.102905,542.702454 481.773224,544.277283 485.621399,542.197998 
	C487.440735,541.214966 489.152527,541.742310 490.795013,543.546997 
	C488.141205,548.597046 483.312042,547.601624 479.202332,547.120422 
	C474.840698,546.609436 472.259186,543.424316 471.724335,538.995056 
	C471.153961,534.271545 472.630981,530.431763 477.240906,528.377808 
	C481.707275,526.387756 487.657471,527.683044 490.754761,531.282776 
	C487.972382,535.333801 484.856812,531.542358 481.630127,531.778625 
z"/>
<path fill="#000000" opacity="1.000000" stroke="none" 
	d="
M401.462830,531.808105 
	C402.585114,537.606995 400.152649,541.077698 394.993713,541.288269 
	C392.042938,541.408630 389.203949,541.179993 389.138855,545.381409 
	C389.116699,546.811523 387.942169,547.239563 386.627380,547.090942 
	C385.443756,546.957031 384.853088,546.138977 384.839783,545.067566 
	C384.778046,540.098083 384.780670,535.127625 384.791260,530.157532 
	C384.793091,529.302002 385.159302,528.589233 385.937714,528.103760 
	C389.058838,526.157288 398.657318,528.234192 401.462830,531.808105 
M392.196991,537.590820 
	C394.181335,537.378845 395.895752,536.499756 395.989563,534.416321 
	C396.061615,532.816223 394.594696,531.851074 393.033264,531.546021 
	C391.691956,531.283997 390.145966,531.338196 389.710785,532.895142 
	C389.194855,534.740784 388.529602,536.938049 392.196991,537.590820 
z"/>
<path fill="#000000" opacity="1.000000" stroke="none" 
	d="
M301.547760,531.740112 
	C305.241150,527.633850 312.351471,526.285278 316.751129,528.515564 
	C318.135010,529.217102 319.619995,529.931335 318.755829,531.841431 
	C318.104919,533.280212 316.727661,533.385559 315.320557,533.062622 
	C315.159546,533.025696 314.987762,532.988831 314.849945,532.904541 
	C311.747742,531.007751 308.967621,530.852539 306.638458,534.189575 
	C304.962067,536.591309 305.211639,538.896545 306.788574,541.130981 
	C309.015991,544.287109 311.774597,543.636353 314.722198,542.199219 
	C316.357635,541.401855 318.178223,541.449951 318.883850,543.475220 
	C319.538605,545.354614 317.891968,546.072144 316.528046,546.702759 
	C312.900269,548.380127 305.082825,547.482361 302.833893,544.902222 
	C299.468292,541.041077 298.444305,536.756287 301.547760,531.740112 
z"/>
<path fill="#000000" opacity="1.000000" stroke="none" 
	d="
M510.866394,543.711914 
	C512.446411,543.880737 513.827087,543.819702 513.890137,545.420410 
	C513.952759,547.011169 512.654602,547.156555 511.465149,547.285034 
	C511.134888,547.320679 510.800385,547.330017 510.467865,547.329468 
	C496.004150,547.303955 499.018372,548.662659 498.678070,536.442871 
	C498.627136,534.613647 498.721466,532.780823 498.721527,530.949646 
	C498.721588,528.975830 499.547607,527.766174 501.650238,527.757629 
	C504.978821,527.744141 508.308014,527.730896 511.635895,527.784546 
	C512.624695,527.800476 513.739563,527.960999 513.877258,529.248413 
	C514.047058,530.836609 512.886658,531.191284 511.648865,531.258240 
	C509.987885,531.348267 508.320343,531.310608 506.657928,531.381958 
	C505.076172,531.449768 503.489288,531.745422 503.567383,533.783875 
	C503.637726,535.619995 505.184906,535.552673 506.531586,535.675903 
	C508.301971,535.837952 510.223877,535.238586 511.802673,536.650269 
	C512.233887,539.691772 509.939087,539.109985 508.251434,539.341248 
	C506.415771,539.592712 503.541107,538.721191 503.642670,541.671875 
	C503.745789,544.667053 506.654602,543.358704 508.428345,543.665833 
	C509.075592,543.777954 509.757263,543.691101 510.866394,543.711914 
z"/>
<path fill="#000000" opacity="1.000000" stroke="none" 
	d="
M195.474014,537.369995 
	C196.369293,540.822876 193.958801,540.319519 192.311325,540.277832 
	C189.183441,540.198792 187.070862,540.930603 187.246460,544.637878 
	C187.317276,546.132874 186.638199,547.211731 184.875809,547.114136 
	C183.066437,547.013916 182.770691,545.700012 182.755600,544.319458 
	C182.706497,539.828186 182.739456,535.336182 182.726730,530.844421 
	C182.720993,528.821106 183.654953,527.733215 185.728104,527.737305 
	C189.054688,527.743835 192.381821,527.724670 195.707520,527.783508 
	C196.703003,527.801086 197.801208,528.001892 197.903229,529.292236 
	C198.029037,530.883728 196.841980,531.192505 195.617432,531.259705 
	C193.791214,531.360046 191.958740,531.343811 190.131805,531.434998 
	C188.631500,531.509888 187.566223,532.193848 187.469208,533.822266 
	C187.356354,535.716675 188.452362,536.490601 190.206421,536.623352 
	C191.857727,536.748413 193.505280,536.923218 195.474014,537.369995 
z"/>
<path fill="#000000" opacity="1.000000" stroke="none" 
	d="
M173.230042,530.282471 
	C173.289154,535.083252 173.314880,539.411865 173.304047,543.740356 
	C173.299683,545.483643 173.140030,547.118591 170.769211,547.229309 
	C168.226715,547.347961 167.690994,545.823608 167.694046,543.744446 
	C167.700180,539.582336 167.656799,535.419739 167.709106,531.258301 
	C167.725159,529.980652 167.524780,528.387024 169.266953,527.998962 
	C170.935715,527.627197 172.668045,527.507324 173.230042,530.282471 
z"/>
<path fill="#000000" opacity="1.000000" stroke="none" 
	d="
M652.309509,537.013916 
	C652.278870,539.831665 652.292908,542.165161 652.203674,544.494690 
	C652.147827,545.954834 651.621521,547.129333 649.845276,547.056946 
	C648.369080,546.996765 647.808350,545.998108 647.794800,544.731750 
	C647.743103,539.902588 647.738037,535.072388 647.781006,530.243164 
	C647.792358,528.961609 648.386047,528.013855 649.868286,527.972351 
	C651.640564,527.922729 652.175171,529.061707 652.233337,530.532410 
	C652.312256,532.528870 652.289612,534.529236 652.309509,537.013916 
z"/>
<path fill="#000000" opacity="1.000000" stroke="none" 
	d="
M691.627441,528.628418 
	C692.763855,533.903198 692.178284,538.858459 692.256287,543.796814 
	C692.279663,545.274780 692.205933,546.936401 690.115295,547.046448 
	C687.996277,547.158142 687.761047,545.571533 687.744263,544.035889 
	C687.695679,539.580017 687.690063,535.122620 687.750793,530.666992 
	C687.783752,528.252441 689.044250,527.432068 691.627441,528.628418 
z"/>
<path fill="#000000" opacity="1.000000" stroke="none" 
	d="
M272.395538,537.932007 
	C273.805756,537.771545 274.809479,537.575989 275.759399,537.724548 
	C277.308868,537.967041 280.309814,537.009949 279.695862,539.700928 
	C279.032867,542.606995 275.825836,541.121643 273.740723,541.202576 
	C271.662659,541.283264 270.030090,540.520691 272.395538,537.932007 
z"/>
<path fill="#000000" opacity="1.000000" stroke="none" 
	d="
M605.603271,537.957031 
	C607.918152,540.100464 606.694702,541.065796 604.711243,541.159973 
	C602.786072,541.251343 600.309204,542.315613 599.163269,539.708862 
	C598.684692,538.620300 599.744690,537.920959 600.800659,537.846008 
	C602.253967,537.742859 603.720703,537.828125 605.603271,537.957031 
z"/>
<path fill="#000000" opacity="1.000000" stroke="none" 
	d="
M586.891846,524.052002 
	C584.749512,525.700073 582.918396,527.238586 580.321228,525.604858 
	C580.841858,522.905701 582.552185,521.677551 585.171204,521.770935 
	C586.267273,521.810059 588.274475,521.380005 586.891846,524.052002 
z"/>
</svg>